<svg version="1.1" id="Layer_1" xmlns="http://www.w3.org/2000/svg" xmlns:xlink="http://www.w3.org/1999/xlink" x="0px" y="0px"
	 width="100%" viewBox="0 0 227 143" enable-background="new 0 0 227 143" xml:space="preserve">
<path fill="#FFFEFE" opacity="1.000000" stroke="none" 
	d="
M161.000000,144.000000 
	C107.333336,144.000000 54.166672,144.000000 1.000007,144.000000 
	C1.000005,96.333336 1.000005,48.666679 1.000002,1.000014 
	C76.666656,1.000009 152.333313,1.000009 227.999969,1.000005 
	C227.999985,48.666653 227.999985,96.333305 228.000000,143.999969 
	C205.833328,144.000000 183.666672,144.000000 161.000000,144.000000 
M177.653137,57.493778 
	C177.129578,56.920864 176.606018,56.347950 175.909988,55.137115 
	C171.993225,52.096775 168.076477,49.056435 163.848694,45.469669 
	C162.967010,44.955616 162.085342,44.441563 160.975250,43.312782 
	C160.499725,42.882439 160.024216,42.452095 159.589630,41.729744 
	C159.589630,41.729744 159.389709,41.518318 159.389709,41.518318 
	C159.389709,41.518318 159.112839,41.608238 158.538422,41.156021 
	C156.688644,40.115952 154.838867,39.075878 152.615265,37.482826 
	C151.406174,36.509964 150.197067,35.537102 148.714294,33.826836 
	C147.119812,30.620407 145.525330,27.413977 143.634628,23.595558 
	C142.773376,23.361769 141.912140,23.127979 140.762268,22.264742 
	C138.503448,21.188423 136.244614,20.112103 133.489746,18.415968 
	C129.660995,18.701944 125.832253,18.987921 121.387199,18.833647 
	C115.919930,15.765008 110.479996,14.224124 104.834724,18.585405 
	C104.065117,19.179964 102.554184,19.153894 101.473213,18.951675 
	C94.256874,17.601702 89.749817,20.723541 86.447403,27.180962 
	C80.855125,29.186316 75.262848,31.191671 69.191406,33.368847 
	C68.159050,32.983150 66.368553,32.314213 64.237122,31.108633 
	C63.445251,30.414797 62.653385,29.720961 61.737747,28.683167 
	C61.585197,28.431988 61.374378,28.365316 60.407158,28.159586 
	C58.929577,27.875620 57.451992,27.591654 55.167614,27.151464 
	C44.777428,27.537279 37.484413,33.359936 34.727650,43.381184 
	C34.747250,44.272610 34.766853,45.164036 34.724949,46.866863 
	C35.394100,49.281471 36.063251,51.696075 36.865559,54.795059 
	C38.234814,56.543728 39.604065,58.292400 41.426758,60.647484 
	C41.860626,60.902546 42.294491,61.157612 42.948032,61.960823 
	C40.429604,65.037567 37.579651,67.905312 35.475460,71.243195 
	C32.758068,75.553787 29.599325,79.998672 28.478052,84.815765 
	C26.246128,94.404282 31.343454,103.213936 41.315910,109.180969 
	C48.212273,113.307426 55.588955,115.944122 63.620735,117.277031 
	C70.871536,118.480316 77.919281,120.907112 85.485062,123.140068 
	C86.013802,123.140350 86.542542,123.140625 87.895805,123.509804 
	C93.469109,124.191338 99.065727,125.587082 104.610863,125.405998 
	C116.225693,125.026726 127.820999,123.904297 139.407852,122.897469 
	C143.075638,122.578766 146.676331,121.239845 150.333969,121.110626 
	C155.874573,120.914894 161.438141,121.369095 167.614853,121.672195 
	C168.390396,121.395355 169.165924,121.118523 170.656754,120.882507 
	C171.101105,120.732239 171.545471,120.581963 172.523514,120.536850 
	C172.993057,120.295380 173.462601,120.053909 174.671432,119.820480 
	C175.111740,119.623184 175.552048,119.425888 176.590805,119.330086 
	C177.292587,118.962067 177.994370,118.594048 179.378510,118.275436 
	C184.891724,114.410286 190.404953,110.545135 196.440582,106.445114 
	C196.905685,105.629890 197.370804,104.814667 198.164581,103.877411 
	C198.164581,103.877411 198.160385,103.526825 198.765137,103.117393 
	C199.137451,100.093208 199.509750,97.069031 199.999588,93.316025 
	C199.270752,91.544495 198.541931,89.772972 197.765671,87.328430 
	C196.559708,85.733627 195.353745,84.138824 193.628845,82.122406 
	C190.884995,78.751358 188.141144,75.380318 185.434647,71.395760 
	C185.025497,70.708618 184.616333,70.021469 184.219330,68.704620 
	C183.703934,67.804558 183.188522,66.904495 182.628052,65.356300 
	C181.793579,64.119820 180.959106,62.883327 180.112534,61.214851 
	C180.112534,61.214851 179.736053,61.002682 179.697495,60.430935 
	C179.097198,59.720497 178.496887,59.010059 177.942429,58.105057 
	C177.942429,58.105057 177.743454,58.085926 177.653137,57.493778 
z"/>
<path fill="#FDD256" opacity="1.000000" stroke="none" 
	d="
M152.989090,38.035809 
	C154.838867,39.075878 156.688644,40.115952 158.892029,41.453506 
	C159.245621,41.750988 159.548691,42.021755 159.548691,42.021755 
	C160.024216,42.452095 160.499725,42.882439 160.785980,43.641060 
	C160.394745,43.979053 160.192780,43.988777 159.627594,44.039501 
	C157.182770,45.046841 155.184280,46.326157 153.000092,46.906281 
	C149.712479,47.779472 146.331604,47.754425 143.910675,51.072483 
	C142.999969,52.320690 140.054932,52.188274 138.007858,52.474766 
	C135.936417,52.764668 133.777710,52.555424 131.747208,52.987576 
	C127.563820,53.877918 123.425667,54.996460 119.299179,56.131199 
	C117.549828,56.612247 115.682343,57.075699 114.201378,58.052017 
	C106.234894,63.303852 103.217842,63.318775 95.201126,57.502563 
	C98.326401,56.382309 101.221199,55.344669 105.036263,53.977161 
	C100.732338,49.991035 96.849419,51.096729 92.994781,51.457333 
	C88.798584,51.849892 84.555130,51.733402 80.357491,52.115696 
	C77.501823,52.375774 73.848763,52.171684 72.015129,53.811207 
	C66.463799,58.774837 56.569881,54.795876 53.120857,47.682648 
	C53.474876,46.555607 53.699238,45.728210 54.093666,44.611061 
	C56.221313,42.556717 58.178894,40.792114 60.445278,39.021271 
	C61.169132,39.009613 61.584187,39.004196 62.338875,38.994537 
	C63.307682,38.493668 63.936852,37.997044 64.566017,37.500420 
	C63.710659,37.334171 62.855305,37.167927 61.682526,36.998543 
	C60.943089,36.984325 60.521072,36.973244 59.878971,36.863941 
	C59.369446,36.582928 59.196163,36.322769 59.439232,35.834549 
	C61.352299,34.337662 62.965179,32.991467 64.578064,31.645271 
	C66.368553,32.314213 68.159050,32.983150 69.191406,33.368847 
	C75.262848,31.191671 80.855125,29.186316 86.841095,27.673630 
	C87.167694,29.969942 86.756165,31.839998 87.089035,33.566532 
	C89.367989,45.386993 90.875114,46.771931 99.918495,45.902542 
	C102.182816,46.718044 104.087051,47.361504 106.212158,48.112129 
	C106.708199,48.419266 106.895912,48.681770 107.026764,49.298386 
	C107.703163,49.732971 108.349007,49.875969 109.445236,50.015972 
	C112.582123,49.155956 116.368797,52.095818 118.304291,47.675507 
	C119.113731,47.212387 119.637001,46.733162 120.517792,46.222305 
	C122.591202,44.464951 124.307091,42.739231 126.339294,40.963730 
	C126.990929,40.270241 127.326241,39.626537 127.747849,38.635456 
	C127.951340,37.343933 128.068542,36.399784 128.488037,35.278175 
	C129.193726,34.065014 129.597168,33.029308 130.351959,31.946922 
	C131.812149,31.470688 132.920990,31.041138 134.415375,30.716980 
	C138.531097,31.895109 142.261276,32.967842 146.143250,34.269108 
	C146.883896,34.924221 147.472702,35.350807 148.045929,36.167530 
	C148.677048,40.425907 150.215683,41.302006 152.989090,38.035809 
z"/>
<path fill="#2D2B24" opacity="1.000000" stroke="none" 
	d="
M182.673126,66.004433 
	C183.188522,66.904495 183.703934,67.804558 184.169205,69.353058 
	C184.545151,70.670753 184.971207,71.340012 185.397278,72.009277 
	C188.141144,75.380318 190.884995,78.751358 193.867661,82.704773 
	C195.342010,84.858574 196.577545,86.430008 197.813095,88.001442 
	C198.541931,89.772972 199.270752,91.544495 199.689026,93.913284 
	C198.972427,97.515976 198.566406,100.521400 198.160385,103.526825 
	C198.160385,103.526825 198.164581,103.877411 197.690216,103.986908 
	C196.783310,104.957603 196.350754,105.818794 195.918182,106.679977 
	C190.404953,110.545135 184.891724,114.410286 178.713745,118.199020 
	C177.363449,118.491272 176.677902,118.859940 175.992355,119.228592 
	C175.552048,119.425888 175.111740,119.623184 174.153397,119.626038 
	C173.086853,119.764961 172.538330,120.098328 171.989822,120.431694 
	C171.545471,120.581963 171.101105,120.732239 170.111359,120.641022 
	C168.707962,120.782074 167.849945,121.164619 166.991943,121.547165 
	C161.438141,121.369095 155.874573,120.914894 150.333969,121.110626 
	C146.676331,121.239845 143.075638,122.578766 139.407852,122.897469 
	C127.820999,123.904297 116.225693,125.026726 104.610863,125.405998 
	C99.065727,125.587082 93.469109,124.191338 87.398819,123.109573 
	C86.286751,122.737686 85.671669,122.766014 85.056580,122.794342 
	C77.919281,120.907112 70.871536,118.480316 63.620735,117.277031 
	C55.588955,115.944122 48.212273,113.307426 41.315910,109.180969 
	C31.343454,103.213936 26.246128,94.404282 28.478052,84.815765 
	C29.599325,79.998672 32.758068,75.553787 35.475460,71.243195 
	C37.579651,67.905312 40.429604,65.037567 43.095009,61.781059 
	C43.923851,62.070328 44.605717,62.539360 45.043655,63.271347 
	C41.639843,68.618965 38.276642,73.590424 35.367596,78.814758 
	C30.977581,86.698753 31.573309,94.842155 38.331299,100.647743 
	C43.674927,105.238297 50.181210,108.803780 56.700203,111.584076 
	C61.152878,113.483116 66.583076,112.945984 71.458099,114.029503 
	C81.017082,116.154068 90.493599,118.649658 100.142441,121.211914 
	C100.846382,121.311852 101.412125,121.191582 102.432205,121.017761 
	C117.222672,121.934891 131.462997,122.094406 145.289719,117.115494 
	C147.383484,116.361549 150.001770,116.140762 152.157700,116.633949 
	C165.358109,119.653641 176.986221,115.399948 187.503754,108.296013 
	C198.048187,101.173912 197.554535,90.309868 187.285217,82.812828 
	C185.733246,81.679817 183.830917,80.286942 183.291977,78.624756 
	C179.455704,66.793098 172.331039,57.062168 164.358734,47.532234 
	C164.312073,46.822281 164.235886,46.419189 164.159714,46.016098 
	C168.076477,49.056435 171.993225,52.096775 175.996399,55.779675 
	C176.636337,56.976799 177.189896,57.531364 177.743454,58.085930 
	C177.743454,58.085926 177.942429,58.105057 177.951508,58.513699 
	C178.552414,59.615788 179.144226,60.309235 179.736053,61.002682 
	C179.736053,61.002682 180.112534,61.214851 180.102768,61.785599 
	C180.953049,63.572372 181.813080,64.788406 182.673126,66.004433 
z"/>
<path fill="#D95928" opacity="1.000000" stroke="none" 
	d="
M128.185760,35.455635 
	C128.068542,36.399784 127.951340,37.343933 127.450623,38.645493 
	C126.719063,39.673103 126.371025,40.343311 126.022980,41.013515 
	C124.307091,42.739231 122.591202,44.464951 120.287102,45.909172 
	C118.462502,45.419907 117.226120,45.212139 115.710106,44.817093 
	C114.859436,43.391438 114.288399,42.153049 113.838165,40.517483 
	C114.343269,38.029377 115.080177,35.926228 115.008240,33.851124 
	C114.942192,31.946230 114.004265,30.071566 113.450470,28.183586 
	C111.438538,29.067020 109.234283,29.682127 107.486824,30.934553 
	C106.439011,31.685534 106.127922,33.444454 105.445488,34.728985 
	C103.494141,38.402004 101.522232,42.064102 99.558411,45.730499 
	C90.875114,46.771931 89.367989,45.386993 87.089035,33.566532 
	C86.756165,31.839998 87.167694,29.969942 87.234543,27.737469 
	C89.749817,20.723541 94.256874,17.601702 101.473213,18.951675 
	C102.554184,19.153894 104.065117,19.179964 104.834724,18.585405 
	C110.479996,14.224124 115.919930,15.765008 121.790489,19.400867 
	C126.124451,19.657320 130.055115,19.346550 133.985794,19.035782 
	C136.244614,20.112103 138.503448,21.188423 140.741119,22.904137 
	C138.145630,25.360096 135.571289,27.176661 132.664871,28.995453 
	C131.889984,28.999491 131.447159,29.001301 130.623840,29.008022 
	C124.931534,29.683142 128.029755,33.039211 128.185760,35.455635 
z"/>
<path fill="#FDD150" opacity="1.000000" stroke="none" 
	d="
M36.732403,54.110683 
	C36.063251,51.696075 35.394100,49.281471 35.033295,46.310219 
	C35.304531,44.858768 35.267422,43.963970 35.230309,43.069168 
	C37.484413,33.359936 44.777428,27.537279 55.567108,27.596436 
	C55.638260,29.737329 55.309914,31.433254 54.585659,33.110062 
	C52.869354,33.112278 51.548962,33.133614 49.886524,33.135223 
	C49.025181,33.727634 48.505878,34.339775 47.648453,35.034424 
	C45.143894,38.051270 42.977459,40.985607 40.488644,44.011414 
	C40.375664,45.430161 40.585064,46.757442 40.846931,48.457436 
	C41.023365,49.817070 41.147335,50.803997 41.202415,51.842884 
	C41.133522,51.894848 40.996483,51.999756 40.676392,52.041504 
	C39.903881,52.721375 39.451458,53.359493 38.621078,54.004303 
	C37.739552,54.044228 37.235977,54.077454 36.732403,54.110683 
z"/>
<path fill="#FBD156" opacity="1.000000" stroke="none" 
	d="
M45.287579,63.008389 
	C44.605717,62.539360 43.923851,62.070328 42.985176,61.506989 
	C42.294491,61.157612 41.860626,60.902546 41.337769,60.036213 
	C42.166801,57.947651 43.084820,56.470360 44.402016,54.994991 
	C45.865685,54.992638 46.930168,54.988361 48.214462,55.256302 
	C50.204945,56.240814 51.975628,56.953117 54.295956,57.886528 
	C49.685528,61.616020 54.750385,62.766228 55.894470,65.189537 
	C53.192303,67.005760 51.026375,68.439095 48.890179,64.629143 
	C48.372494,63.705845 46.524078,63.528664 45.287579,63.008389 
z"/>
<path fill="#DB5D2B" opacity="1.000000" stroke="none" 
	d="
M132.996948,28.993225 
	C135.571289,27.176661 138.145630,25.360096 140.885437,23.218861 
	C141.912140,23.127979 142.773376,23.361769 143.804962,24.280037 
	C144.647339,27.989870 145.319382,31.015223 145.991425,34.040573 
	C142.261276,32.967842 138.531097,31.895109 134.374847,30.470726 
	C133.631500,29.743793 133.314224,29.368511 132.996948,28.993225 
z"/>
<path fill="#FDD55B" opacity="1.000000" stroke="none" 
	d="
M54.981567,33.129177 
	C55.309914,31.433254 55.638260,29.737329 55.970505,27.674549 
	C57.451992,27.591654 58.929577,27.875620 60.859505,28.437948 
	C61.474812,28.855717 61.658031,28.959322 61.861515,29.027126 
	C62.653385,29.720961 63.445251,30.414797 64.407593,31.376951 
	C62.965179,32.991467 61.352299,34.337662 59.149895,35.675106 
	C57.367435,34.820629 56.174503,33.974903 54.981567,33.129177 
z"/>
<path fill="#FBD359" opacity="1.000000" stroke="none" 
	d="
M44.002838,54.993065 
	C43.084820,56.470360 42.166801,57.947651 41.111050,59.733006 
	C39.604065,58.292400 38.234814,56.543728 36.798981,54.452873 
	C37.235977,54.077454 37.739552,54.044228 38.941940,53.963692 
	C40.092667,53.277508 40.544575,52.638634 40.996483,51.999756 
	C40.996483,51.999756 41.133522,51.894848 41.487694,51.916580 
	C42.553944,52.307232 43.266018,52.676147 43.981228,53.369568 
	C43.990517,54.127068 43.996674,54.560066 44.002838,54.993065 
z"/>
<path fill="#DA6834" opacity="1.000000" stroke="none" 
	d="
M146.143250,34.269104 
	C145.319382,31.015223 144.647339,27.989870 143.953064,24.586033 
	C145.525330,27.413977 147.119812,30.620407 148.748199,34.359993 
	C148.541901,35.187901 148.301712,35.482647 148.061523,35.777393 
	C147.472702,35.350807 146.883896,34.924221 146.143250,34.269104 
z"/>
<path fill="#DB5D2B" opacity="1.000000" stroke="none" 
	d="
M133.737762,18.725874 
	C130.055115,19.346550 126.124451,19.657320 122.098648,19.620991 
	C125.832253,18.987921 129.660995,18.701944 133.737762,18.725874 
z"/>
<path fill="#FBD364" opacity="1.000000" stroke="none" 
	d="
M164.004211,45.742882 
	C164.235886,46.419189 164.312073,46.822281 163.997559,47.687241 
	C162.221924,48.381466 160.837006,48.613823 158.900269,48.938759 
	C159.394241,46.701054 159.692535,45.349781 159.990814,43.998505 
	C160.192780,43.988777 160.394745,43.979053 160.900177,43.948425 
	C162.085342,44.441563 162.967010,44.955616 164.004211,45.742882 
z"/>
<path fill="#2E2C27" opacity="1.000000" stroke="none" 
	d="
M198.462769,103.322113 
	C198.566406,100.521400 198.972427,97.515976 199.630249,94.277695 
	C199.509750,97.069031 199.137451,100.093208 198.462769,103.322113 
z"/>
<path fill="#FBD364" opacity="1.000000" stroke="none" 
	d="
M148.045929,36.167530 
	C148.301712,35.482647 148.541901,35.187901 148.885040,34.728695 
	C150.197067,35.537102 151.406174,36.509964 152.802185,37.759315 
	C150.215683,41.302006 148.677048,40.425907 148.045929,36.167530 
z"/>
<path fill="#2E2C27" opacity="1.000000" stroke="none" 
	d="
M197.789383,87.664932 
	C196.577545,86.430008 195.342010,84.858574 194.127136,82.915573 
	C195.353745,84.138824 196.559708,85.733627 197.789383,87.664932 
z"/>
<path fill="#2E2C27" opacity="1.000000" stroke="none" 
	d="
M182.650589,65.680367 
	C181.813080,64.788406 180.953049,63.572372 180.108826,62.001595 
	C180.959106,62.883327 181.793579,64.119820 182.650589,65.680367 
z"/>
<path fill="#FDDA70" opacity="1.000000" stroke="none" 
	d="
M34.978981,43.225174 
	C35.267422,43.963970 35.304531,44.858768 35.064049,45.904518 
	C34.766853,45.164036 34.747250,44.272610 34.978981,43.225174 
z"/>
<path fill="#2E2C27" opacity="1.000000" stroke="none" 
	d="
M167.303406,121.609680 
	C167.849945,121.164619 168.707962,120.782074 169.753723,120.620605 
	C169.165924,121.118523 168.390396,121.395355 167.303406,121.609680 
z"/>
<path fill="#2E2C27" opacity="1.000000" stroke="none" 
	d="
M179.716766,60.716808 
	C179.144226,60.309235 178.552414,59.615788 177.928589,58.610977 
	C178.496887,59.010059 179.097198,59.720497 179.716766,60.716808 
z"/>
<path fill="#2E2C27" opacity="1.000000" stroke="none" 
	d="
M196.179382,106.562546 
	C196.350754,105.818794 196.783310,104.957603 197.525879,104.047928 
	C197.370804,104.814667 196.905685,105.629890 196.179382,106.562546 
z"/>
<path fill="#2E2C27" opacity="1.000000" stroke="none" 
	d="
M172.256668,120.484268 
	C172.538330,120.098328 173.086853,119.764961 173.783752,119.622025 
	C173.462601,120.053909 172.993057,120.295380 172.256668,120.484268 
z"/>
<path fill="#2E2C27" opacity="1.000000" stroke="none" 
	d="
M176.291580,119.279343 
	C176.677902,118.859940 177.363449,118.491272 178.372559,118.174316 
	C177.994370,118.594048 177.292587,118.962067 176.291580,119.279343 
z"/>
<path fill="#4C4736" opacity="1.000000" stroke="none" 
	d="
M85.270821,122.967209 
	C85.671669,122.766014 86.286751,122.737686 86.986557,122.925125 
	C86.542542,123.140625 86.013802,123.140350 85.270821,122.967209 
z"/>
<path fill="#2E2C27" opacity="1.000000" stroke="none" 
	d="
M185.415955,71.702515 
	C184.971207,71.340012 184.545151,70.670753 184.163132,69.667908 
	C184.616333,70.021469 185.025497,70.708618 185.415955,71.702515 
z"/>
<path fill="#2E2C27" opacity="1.000000" stroke="none" 
	d="
M177.698303,57.789856 
	C177.189896,57.531364 176.636337,56.976799 176.082642,56.098637 
	C176.606018,56.347950 177.129578,56.920864 177.698303,57.789856 
z"/>
<path fill="#FBD364" opacity="1.000000" stroke="none" 
	d="
M159.569153,41.875748 
	C159.548691,42.021755 159.245621,41.750988 159.179230,41.679611 
	C159.112839,41.608238 159.389709,41.518318 159.389709,41.518318 
	C159.389709,41.518318 159.589630,41.729744 159.569153,41.875748 
z"/>
<path fill="#FED763" opacity="1.000000" stroke="none" 
	d="
M61.799629,28.855146 
	C61.658031,28.959322 61.474812,28.855717 61.208572,28.599731 
	C61.374378,28.365316 61.585197,28.431988 61.799629,28.855146 
z"/>
<path fill="#FBD359" opacity="1.000000" stroke="none" 
	d="
M159.627594,44.039501 
	C159.692535,45.349781 159.394241,46.701054 158.900269,48.938759 
	C160.837006,48.613823 162.221924,48.381466 163.968018,47.994102 
	C172.331039,57.062168 179.455704,66.793098 183.291977,78.624756 
	C183.830917,80.286942 185.733246,81.679817 187.285217,82.812828 
	C197.554535,90.309868 198.048187,101.173912 187.503754,108.296013 
	C176.986221,115.399948 165.358109,119.653641 152.157700,116.633949 
	C150.001770,116.140762 147.383484,116.361549 145.289719,117.115494 
	C131.462997,122.094406 117.222672,121.934891 102.267960,120.870361 
	C101.100983,120.848236 100.552612,120.919968 100.004242,120.991699 
	C90.493599,118.649658 81.017082,116.154068 71.458099,114.029503 
	C66.583076,112.945984 61.152878,113.483116 56.700203,111.584076 
	C50.181210,108.803780 43.674927,105.238297 38.331299,100.647743 
	C31.573309,94.842155 30.977581,86.698753 35.367596,78.814758 
	C38.276642,73.590424 41.639843,68.618965 45.043655,63.271347 
	C46.524078,63.528664 48.372494,63.705845 48.890179,64.629143 
	C51.026375,68.439095 53.192303,67.005760 55.894470,65.189537 
	C54.750385,62.766228 49.685528,61.616020 54.295956,57.886528 
	C51.975628,56.953117 50.204945,56.240814 48.249912,54.913689 
	C49.707439,52.193340 51.349316,50.087814 52.991196,47.982292 
	C56.569881,54.795876 66.463799,58.774837 72.015129,53.811207 
	C73.848763,52.171684 77.501823,52.375774 80.357491,52.115696 
	C84.555130,51.733402 88.798584,51.849892 92.994781,51.457333 
	C96.849419,51.096729 100.732338,49.991035 105.036263,53.977161 
	C101.221199,55.344669 98.326401,56.382309 95.201126,57.502563 
	C103.217842,63.318775 106.234894,63.303852 114.201378,58.052017 
	C115.682343,57.075699 117.549828,56.612247 119.299179,56.131199 
	C123.425667,54.996460 127.563820,53.877918 131.747208,52.987576 
	C133.777710,52.555424 135.936417,52.764668 138.007858,52.474766 
	C140.054932,52.188274 142.999969,52.320690 143.910675,51.072483 
	C146.331604,47.754425 149.712479,47.779472 153.000092,46.906281 
	C155.184280,46.326157 157.182770,45.046841 159.627594,44.039501 
M138.985474,75.190331 
	C138.145035,73.228485 137.304596,71.266640 136.505508,68.618401 
	C135.264557,66.602844 134.435913,63.811737 132.632980,62.853218 
	C131.492615,62.246944 128.302475,63.890320 127.090027,65.383850 
	C125.023521,67.929405 126.651146,70.285927 128.986465,72.837990 
	C129.657257,74.889908 130.328033,76.941818 131.154404,79.749931 
	C133.548035,79.859398 135.959671,80.140800 138.315933,79.893768 
	C138.671143,79.856529 138.767868,77.353706 138.985474,75.190331 
M77.252296,68.073769 
	C75.211815,69.838066 72.530693,71.284149 71.423981,73.512260 
	C70.932892,74.500954 73.225449,77.675873 74.945908,78.802155 
	C79.329620,81.671883 83.811081,77.797729 84.587357,70.874046 
	C87.298347,69.416893 89.635963,67.192413 87.414879,64.343666 
	C86.224319,62.816666 82.810898,61.993015 80.809166,62.491783 
	C79.483955,62.821987 78.883644,66.061455 77.252296,68.073769 
M118.538696,77.012283 
	C119.566063,76.399719 120.593430,75.787163 121.620804,75.174606 
	C121.185371,74.552521 120.625847,73.345238 120.335373,73.406822 
	C118.858818,73.719910 117.451981,74.361725 115.262421,74.926117 
	C114.249603,75.662727 113.169418,76.323288 112.236305,77.149879 
	C109.149818,79.884003 106.170967,79.849289 102.846642,77.394974 
	C101.563385,76.447556 99.666801,76.330887 98.049644,75.835724 
	C98.510719,77.876907 98.293541,80.613075 99.549995,81.839272 
	C105.064590,87.221085 115.282669,84.370140 118.538696,77.012283 
z"/>
<path fill="#FDE3AB" opacity="1.000000" stroke="none" 
	d="
M43.978096,53.045067 
	C43.266018,52.676147 42.553944,52.307232 41.556587,51.864616 
	C41.147335,50.803997 41.023365,49.817070 40.909805,48.042858 
	C40.883823,46.143696 40.847424,45.031822 40.811024,43.919949 
	C42.977459,40.985607 45.143894,38.051270 47.964546,35.003693 
	C49.155365,34.311954 49.691963,33.733452 50.228565,33.154953 
	C51.548962,33.133614 52.869354,33.112278 54.585659,33.110062 
	C56.174503,33.974903 57.367435,34.820629 58.849709,35.825798 
	C59.196163,36.322769 59.369446,36.582928 59.858795,37.208633 
	C60.084629,38.110199 60.110554,38.568859 60.136475,39.027512 
	C58.178894,40.792114 56.221313,42.556717 53.756847,44.674618 
	C52.119293,46.128197 51.044037,47.293575 49.845284,48.313862 
	C47.932735,49.941669 45.938049,51.472965 43.978096,53.045067 
z"/>
<path fill="#FCCA4E" opacity="1.000000" stroke="none" 
	d="
M99.918503,45.902542 
	C101.522232,42.064102 103.494141,38.402004 105.445488,34.728985 
	C106.127922,33.444454 106.439011,31.685534 107.486824,30.934553 
	C109.234283,29.682127 111.438538,29.067020 113.450470,28.183586 
	C114.004265,30.071566 114.942192,31.946230 115.008240,33.851124 
	C115.080177,35.926228 114.343269,38.029377 113.494629,40.546249 
	C109.337135,41.968452 106.142265,43.463413 105.991280,48.004959 
	C104.087051,47.361504 102.182816,46.718044 99.918503,45.902542 
z"/>
<path fill="#FBAD43" opacity="1.000000" stroke="none" 
	d="
M106.212158,48.112129 
	C106.142265,43.463413 109.337135,41.968452 113.373810,40.943436 
	C114.288399,42.153049 114.859436,43.391438 115.820885,45.081551 
	C116.813560,46.241985 117.415840,46.950695 118.018112,47.659401 
	C116.368797,52.095818 112.582123,49.155956 109.281738,49.766037 
	C108.110626,49.348335 107.553406,49.177570 106.996193,49.006805 
	C106.895912,48.681770 106.708199,48.419266 106.212158,48.112129 
z"/>
<path fill="#FDDA70" opacity="1.000000" stroke="none" 
	d="
M43.981228,53.369568 
	C45.938049,51.472965 47.932735,49.941669 49.845284,48.313862 
	C51.044037,47.293575 52.119293,46.128197 53.586781,44.964363 
	C53.699238,45.728210 53.474876,46.555607 53.120857,47.682648 
	C51.349316,50.087814 49.707439,52.193340 48.030106,54.641472 
	C46.930168,54.988361 45.865685,54.992638 44.402016,54.994987 
	C43.996674,54.560066 43.990517,54.127068 43.981228,53.369568 
z"/>
<path fill="#DB5D2B" opacity="1.000000" stroke="none" 
	d="
M128.488022,35.278175 
	C128.029755,33.039211 124.931534,29.683142 130.496765,29.301805 
	C130.500351,30.391655 130.250473,31.192633 130.000610,31.993607 
	C129.597168,33.029308 129.193726,34.065014 128.488022,35.278175 
z"/>
<path fill="#DB5D2B" opacity="1.000000" stroke="none" 
	d="
M118.304291,47.675507 
	C117.415840,46.950695 116.813560,46.241985 116.100510,45.268822 
	C117.226120,45.212139 118.462502,45.419907 119.929581,45.940807 
	C119.637001,46.733162 119.113731,47.212387 118.304291,47.675507 
z"/>
<path fill="#DA6834" opacity="1.000000" stroke="none" 
	d="
M130.351959,31.946922 
	C130.250473,31.192633 130.500351,30.391655 130.877289,29.296894 
	C131.447159,29.001301 131.889984,28.999491 132.664871,28.995455 
	C133.314224,29.368511 133.631500,29.743793 133.989304,30.365332 
	C132.920990,31.041138 131.812149,31.470688 130.351959,31.946922 
z"/>
<path fill="#FDD55B" opacity="1.000000" stroke="none" 
	d="
M61.999947,37.001678 
	C62.855305,37.167927 63.710659,37.334171 64.566017,37.500420 
	C63.936852,37.997044 63.307682,38.493668 62.338867,38.661690 
	C61.999458,37.889286 61.999702,37.445484 61.999947,37.001678 
z"/>
<path fill="#DB5D2B" opacity="1.000000" stroke="none" 
	d="
M126.339294,40.963730 
	C126.371025,40.343311 126.719063,39.673103 127.364334,38.992867 
	C127.326241,39.626537 126.990929,40.270241 126.339294,40.963730 
z"/>
<path fill="#FED763" opacity="1.000000" stroke="none" 
	d="
M61.682526,36.998543 
	C61.999702,37.445484 61.999458,37.889286 61.999226,38.665936 
	C61.584187,39.004196 61.169132,39.009613 60.445282,39.021271 
	C60.110554,38.568859 60.084629,38.110199 60.078880,37.306854 
	C60.521072,36.973244 60.943089,36.984325 61.682526,36.998543 
z"/>
<path fill="#FCCA4E" opacity="1.000000" stroke="none" 
	d="
M107.026764,49.298386 
	C107.553406,49.177570 108.110626,49.348335 108.831345,49.769035 
	C108.349007,49.875969 107.703163,49.732971 107.026764,49.298386 
z"/>
<path fill="#4C4736" opacity="1.000000" stroke="none" 
	d="
M100.142441,121.211914 
	C100.552612,120.919968 101.100983,120.848236 101.813614,120.923904 
	C101.412125,121.191582 100.846382,121.311852 100.142441,121.211914 
z"/>
<path fill="#FDDA70" opacity="1.000000" stroke="none" 
	d="
M40.488644,44.011414 
	C40.847424,45.031822 40.883823,46.143696 40.857342,47.670151 
	C40.585064,46.757442 40.375664,45.430161 40.488644,44.011414 
z"/>
<path fill="#FED763" opacity="1.000000" stroke="none" 
	d="
M49.886524,33.135223 
	C49.691963,33.733452 49.155365,34.311954 48.302670,34.921185 
	C48.505878,34.339775 49.025181,33.727634 49.886524,33.135223 
z"/>
<path fill="#FED450" opacity="1.000000" stroke="none" 
	d="
M40.676392,52.041504 
	C40.544575,52.638634 40.092667,53.277508 39.319897,53.956997 
	C39.451458,53.359493 39.903881,52.721375 40.676392,52.041504 
z"/>
<path fill="#332C1B" opacity="1.000000" stroke="none" 
	d="
M117.767029,77.053795 
	C115.282669,84.370140 105.064590,87.221085 99.549995,81.839272 
	C98.293541,80.613075 98.510719,77.876907 98.049644,75.835724 
	C99.666801,76.330887 101.563385,76.447556 102.846642,77.394974 
	C106.170967,79.849289 109.149818,79.884003 112.236305,77.149879 
	C113.169418,76.323288 114.249603,75.662727 115.761475,75.162857 
	C116.762695,75.950996 117.264862,76.502396 117.767029,77.053795 
z"/>
<path fill="#292416" opacity="1.000000" stroke="none" 
	d="
M129.000549,72.034340 
	C126.651146,70.285927 125.023521,67.929405 127.090027,65.383850 
	C128.302475,63.890320 131.492615,62.246944 132.632980,62.853218 
	C134.435913,63.811737 135.264557,66.602844 136.195312,69.181534 
	C133.590256,70.507889 131.295410,71.271111 129.000549,72.034340 
z"/>
<path fill="#312917" opacity="1.000000" stroke="none" 
	d="
M77.958801,67.998497 
	C78.883644,66.061455 79.483955,62.821987 80.809166,62.491783 
	C82.810898,61.993015 86.224319,62.816666 87.414879,64.343666 
	C89.635963,67.192413 87.298347,69.416893 83.971619,70.953232 
	C82.903305,71.014938 82.450722,70.997459 81.826340,70.783310 
	C81.039864,70.291695 80.425201,69.996735 79.657784,69.415665 
	C78.989624,68.752525 78.474213,68.375511 77.958801,67.998497 
z"/>
<path fill="#F0B44A" opacity="1.000000" stroke="none" 
	d="
M128.993500,72.436165 
	C131.295410,71.271111 133.590256,70.507889 136.174622,69.524734 
	C137.304596,71.266640 138.145035,73.228485 138.668884,75.751144 
	C135.901138,77.205879 133.449982,78.099800 130.998810,78.993729 
	C130.328033,76.941818 129.657257,74.889908 128.993500,72.436165 
z"/>
<path fill="#FDCA55" opacity="1.000000" stroke="none" 
	d="
M77.605545,68.036133 
	C78.474213,68.375511 78.989624,68.752525 79.236557,69.500313 
	C78.226456,70.203857 77.175987,70.338402 76.808319,70.911217 
	C76.071304,72.059418 75.191513,73.522667 75.365204,74.710426 
	C75.487648,75.547829 77.333626,76.805069 78.258537,76.687057 
	C79.477188,76.531563 80.826828,75.408913 81.589424,74.327744 
	C82.160301,73.518387 81.892509,72.117493 81.998138,70.979980 
	C82.450722,70.997459 82.903305,71.014938 83.680908,71.136047 
	C83.811081,77.797729 79.329620,81.671883 74.945908,78.802155 
	C73.225449,77.675873 70.932892,74.500954 71.423981,73.512260 
	C72.530693,71.284149 75.211815,69.838066 77.605545,68.036133 
z"/>
<path fill="#FDCB53" opacity="1.000000" stroke="none" 
	d="
M131.076599,79.371826 
	C133.449982,78.099800 135.901138,77.205879 138.668243,76.151672 
	C138.767868,77.353706 138.671143,79.856529 138.315933,79.893768 
	C135.959671,80.140800 133.548035,79.859398 131.076599,79.371826 
z"/>
<path fill="#E9C24F" opacity="1.000000" stroke="none" 
	d="
M118.152863,77.033035 
	C117.264862,76.502396 116.762695,75.950996 116.140625,75.143997 
	C117.451981,74.361725 118.858818,73.719910 120.335373,73.406822 
	C120.625847,73.345238 121.185371,74.552521 121.620804,75.174606 
	C120.593430,75.787163 119.566063,76.399719 118.152863,77.033035 
z"/>
<path fill="#F3B84F" opacity="1.000000" stroke="none" 
	d="
M81.826340,70.783310 
	C81.892509,72.117493 82.160301,73.518387 81.589424,74.327744 
	C80.826828,75.408913 79.477188,76.531563 78.258537,76.687057 
	C77.333626,76.805069 75.487648,75.547829 75.365204,74.710426 
	C75.191513,73.522667 76.071304,72.059418 76.808319,70.911217 
	C77.175987,70.338402 78.226456,70.203857 79.389297,69.786423 
	C80.425201,69.996735 81.039864,70.291695 81.826340,70.783310 
z"/>
</svg>